<?xml version="1.0" encoding="UTF-8"?>
<!DOCTYPE svg PUBLIC "-//W3C//DTD SVG 1.1//EN" "http://www.w3.org/Graphics/SVG/1.1/DTD/svg11.dtd">
<svg xmlns="http://www.w3.org/2000/svg" version="1.1" width="98px" height="93px" style="shape-rendering:geometricPrecision; text-rendering:geometricPrecision; image-rendering:optimizeQuality; fill-rule:evenodd; clip-rule:evenodd" xmlns:xlink="http://www.w3.org/1999/xlink">
<g><path style="opacity:0.79" fill="#0e0e0e" d="M 36.5,-0.5 C 42.8333,-0.5 49.1667,-0.5 55.5,-0.5C 85.8212,9.78993 97.8212,30.7899 91.5,62.5C 93.1727,60.9137 95.1727,60.2471 97.5,60.5C 97.5,61.5 97.5,62.5 97.5,63.5C 94.1908,66.159 90.5242,68.3257 86.5,70C 79.0629,81.6195 68.7295,89.1195 55.5,92.5C 49.1667,92.5 42.8333,92.5 36.5,92.5C 17.1667,87.1667 4.83333,74.8333 -0.5,55.5C -0.5,49.1667 -0.5,42.8333 -0.5,36.5C 4.83333,17.1667 17.1667,4.83333 36.5,-0.5 Z"/></g>
<g><path style="opacity:1" fill="#fcfcfc" d="M 37.5,1.5 C 64.6296,-0.20757 82.1296,11.7924 90,37.5C 91.0782,46.4042 90.0782,55.0708 87,63.5C 86.5348,64.9308 85.7014,66.0975 84.5,67C 71.4804,71.9405 58.6471,71.4405 46,65.5C 44.274,66.6479 44.4407,67.8145 46.5,69C 50.0901,70.5302 53.7568,71.8635 57.5,73C 65.9362,73.6791 74.2695,73.3457 82.5,72C 71.0006,86.3959 56.0006,92.3959 37.5,90C 11.6452,82.1559 -0.188138,64.6559 2,37.5C 4.64075,26.2139 10.4741,17.0473 19.5,10C 25.2079,6.31011 31.2079,3.47678 37.5,1.5 Z"/></g>
<g><path style="opacity:1" fill="#121212" d="M 59.5,31.5 C 60.4959,31.4142 61.3292,31.7476 62,32.5C 64,37.1667 64,41.8333 62,46.5C 59.9098,47.7908 58.5764,47.1242 58,44.5C 57.0551,39.9393 57.5551,35.606 59.5,31.5 Z"/></g>
<g><path style="opacity:1" fill="#121212" d="M 76.5,31.5 C 77.4959,31.4142 78.3292,31.7476 79,32.5C 81,37.1667 81,41.8333 79,46.5C 76.9098,47.7908 75.5764,47.1242 75,44.5C 74.0551,39.9393 74.5551,35.606 76.5,31.5 Z"/></g>
</svg>
